/* XPM */
static char * fin_xpm[] = {
"64 64 327 2",
"  	c #7A7A7A",
". 	c #777777",
"+ 	c #787878",
"@ 	c #767676",
"# 	c #747474",
"$ 	c #737373",
"% 	c #757575",
"& 	c #727272",
"* 	c #707070",
"= 	c #717171",
"- 	c #797979",
"; 	c #6F6F6F",
"> 	c #6E6E6E",
", 	c #6C6C6C",
"' 	c #6D6D6D",
") 	c #797171",
"! 	c #A66262",
"~ 	c #B35C5C",
"{ 	c #896B6B",
"] 	c #6F6D6D",
"^ 	c #976969",
"/ 	c #E92E2E",
"( 	c #F80000",
"_ 	c #F60B0B",
": 	c #C25151",
"< 	c #746E6E",
"[ 	c #767575",
"} 	c #E83131",
"| 	c #F70808",
"1 	c #9E6262",
"2 	c #9D6969",
"3 	c #D54444",
"4 	c #A56666",
"5 	c #DC3D3D",
"6 	c #6B6B6B",
"7 	c #7D7272",
"8 	c #F31D1D",
"9 	c #B25858",
"0 	c #060606",
"a 	c #5A5A5A",
"b 	c #B05E5E",
"c 	c #F41313",
"d 	c #DB3B3B",
"e 	c #796B6B",
"f 	c #000000",
"g 	c #161616",
"h 	c #767474",
"i 	c #956A6A",
"j 	c #D14A4A",
"k 	c #DB4242",
"l 	c #B45C5C",
"m 	c #7F6969",
"n 	c #836868",
"o 	c #BABABA",
"p 	c #FFFFFF",
"q 	c #DEDEDE",
"r 	c #9C6A6A",
"s 	c #CA5A5A",
"t 	c #E63B3B",
"u 	c #E14141",
"v 	c #7F7F7F",
"w 	c #5F5F5F",
"x 	c #303030",
"y 	c #7C7373",
"z 	c #8C6A6A",
"A 	c #B03939",
"B 	c #E93333",
"C 	c #F82626",
"D 	c #F80D0D",
"E 	c #FA8888",
"F 	c #FDFDFD",
"G 	c #949494",
"H 	c #262626",
"I 	c #4A4A4A",
"J 	c #9D6868",
"K 	c #E23A3A",
"L 	c #F21B1B",
"M 	c #DD2626",
"N 	c #505050",
"O 	c #A4A4A4",
"P 	c #010101",
"Q 	c #B9B9B9",
"R 	c #B55C5C",
"S 	c #FFFEFE",
"T 	c #D0CBCB",
"U 	c #9B0000",
"V 	c #F99D9D",
"W 	c #FBA2A2",
"X 	c #FDD2D2",
"Y 	c #FFFBFB",
"Z 	c #A00000",
"` 	c #F70404",
" .	c #FFF8F8",
"..	c #FDD7D7",
"+.	c #FBA7A7",
"@.	c #F95151",
"#.	c #FA8080",
"$.	c #FEEFEF",
"%.	c #BC7C7C",
"&.	c #CF0000",
"*.	c #C55252",
"=.	c #F41212",
"-.	c #6A6A6A",
";.	c #A9A9A9",
">.	c #0D0000",
",.	c #9F9696",
"'.	c #FEEBEB",
").	c #FBABAB",
"!.	c #F84747",
"~.	c #FA8686",
"{.	c #FFFAFA",
"].	c #FFFDFD",
"^.	c #720000",
"/.	c #F41F1F",
"(.	c #7A0000",
"_.	c #FCB1B1",
":.	c #F97A7A",
"<.	c #FDD8D8",
"[.	c #FEEAEA",
"}.	c #F20000",
"|.	c #B4B4B4",
"1.	c #F83D3D",
"2.	c #F82A2A",
"3.	c #F97575",
"4.	c #FCB4B4",
"5.	c #FCAFAF",
"6.	c #F81616",
"7.	c #C70000",
"8.	c #F84242",
"9.	c #FEF3F3",
"0.	c #FEE4E4",
"a.	c #C9C9C9",
"b.	c #F83838",
"c.	c #FA8787",
"d.	c #FFFCFC",
"e.	c #F83535",
"f.	c #D35757",
"g.	c #640000",
"h.	c #FDD0D0",
"i.	c #FB9595",
"j.	c #F82222",
"k.	c #F40909",
"l.	c #990000",
"m.	c #FB9090",
"n.	c #FFF7F7",
"o.	c #F83232",
"p.	c #FEDDDD",
"q.	c #F42626",
"r.	c #DB0000",
"s.	c #727171",
"t.	c #8E0000",
"u.	c #EA6565",
"v.	c #F81C1C",
"w.	c #FDCBCB",
"x.	c #FEF0F0",
"y.	c #FCADAD",
"z.	c #FB8E8E",
"A.	c #F97D7D",
"B.	c #F47B7B",
"C.	c #300000",
"D.	c #F94B4B",
"E.	c #FCC7C7",
"F.	c #C63535",
"G.	c #F11313",
"H.	c #EB1A1A",
"I.	c #FCC2C2",
"J.	c #C00000",
"K.	c #F83030",
"L.	c #CB0000",
"M.	c #CECECE",
"N.	c #FA5D5D",
"O.	c #D50000",
"P.	c #F50707",
"Q.	c #FBB7B7",
"R.	c #C31717",
"S.	c #F90000",
"T.	c #F10000",
"U.	c #E50000",
"V.	c #EB0000",
"W.	c #910000",
"X.	c #FEE8E8",
"Y.	c #F84040",
"Z.	c #D80000",
"`.	c #420000",
" +	c #FFF2F2",
".+	c #F94242",
"++	c #EF0707",
"@+	c #ED0000",
"#+	c #BA0000",
"$+	c #500000",
"%+	c #A90000",
"&+	c #E80000",
"*+	c #F60000",
"=+	c #FCBBBB",
"-+	c #FFF6F6",
";+	c #FDCCCC",
">+	c #E38787",
",+	c #EDEDED",
"'+	c #0B0B0B",
")+	c #DA0000",
"!+	c #190000",
"~+	c #CC0000",
"{+	c #F95D5D",
"]+	c #FB9999",
"^+	c #FB9393",
"/+	c #D3B3B3",
"(+	c #111111",
"_+	c #9F9F9F",
":+	c #848484",
"<+	c #F82E2E",
"[+	c #CE0000",
"}+	c #9E0000",
"|+	c #DC1616",
"1+	c #E8E5E5",
"2+	c #555555",
"3+	c #F76868",
"4+	c #E50D0D",
"5+	c #D40000",
"6+	c #390000",
"7+	c #DC0000",
"8+	c #F50000",
"9+	c #847878",
"0+	c #F9F9F9",
"a+	c #FDE2E2",
"b+	c #F3E9E9",
"c+	c #474747",
"d+	c #840000",
"e+	c #CD0000",
"f+	c #E90000",
"g+	c #950000",
"h+	c #D7D7D7",
"i+	c #AEAEAE",
"j+	c #FEE3E3",
"k+	c #C5C5C5",
"l+	c #383838",
"m+	c #515151",
"n+	c #BEBEBE",
"o+	c #C8C8C8",
"p+	c #C3C3C3",
"q+	c #535353",
"r+	c #2A2A2A",
"s+	c #C0C0C0",
"t+	c #070707",
"u+	c #C8AEAE",
"v+	c #4F4F4F",
"w+	c #797878",
"x+	c #0A0A0A",
"y+	c #595959",
"z+	c #656565",
"A+	c #424242",
"B+	c #0D0D0D",
"C+	c #0C0C0C",
"D+	c #DBDBDB",
"E+	c #7E0000",
"F+	c #4A0000",
"G+	c #0A0000",
"H+	c #F2F2F2",
"I+	c #CACACA",
"J+	c #A5A5A5",
"K+	c #959595",
"L+	c #DFDFDF",
"M+	c #FEFEFE",
"N+	c #999999",
"O+	c #EE4040",
"P+	c #790000",
"Q+	c #982626",
"R+	c #D6CDCD",
"S+	c #B7B7B7",
"T+	c #686868",
"U+	c #828282",
"V+	c #D1D1D1",
"W+	c #8F8F8F",
"X+	c #FCC3C3",
"Y+	c #FA8282",
"Z+	c #F61616",
"`+	c #B30000",
" @	c #BA2E2E",
".@	c #F1E2E2",
"+@	c #F4F4F4",
"@@	c #E4E4E4",
"#@	c #D6D6D6",
"$@	c #C4C4C4",
"%@	c #666666",
"&@	c #E3E3E3",
"*@	c #D00000",
"=@	c #BC2626",
"-@	c #C36666",
";@	c #F3E7E7",
">@	c #EAEAEA",
",@	c #222222",
"'@	c #939393",
")@	c #F6F6F6",
"!@	c #F83B3B",
"~@	c #F9A7A7",
"{@	c #F1DDDD",
"]@	c #FAF5F5",
"^@	c #F7F7F7",
"/@	c #BCBCBC",
"(@	c #4D4D4D",
"_@	c #D2D2D2",
":@	c #FCFCFC",
"<@	c #2D0000",
"[@	c #E10000",
"}@	c #D90000",
"|@	c #A50000",
"1@	c #400000",
"2@	c #353535",
"3@	c #A8A8A8",
"4@	c #2B2B2B",
"5@	c #3B3B3B",
"6@	c #F3F3F3",
"7@	c #FEF5F5",
"8@	c #DDDDDD",
"9@	c #E1E1E1",
"0@	c #F8F8F8",
"a@	c #404040",
"b@	c #494949",
"c@	c #FBFBFB",
"d@	c #F5F5F5",
"e@	c #D3D3D3",
"f@	c #3D3D3D",
"g@	c #202020",
"h@	c #1B1B1B",
"i@	c #8A8A8A",
"j@	c #7B7B7B",
"k@	c #7C7C7C",
"l@	c #696969",
"  .     + @ # $ $ % % . + @ @ . @ . @ @ . % & # * = % @ . - + . # % = = % . % % . - . @ @ @ % = & % % % @ @ @ . + . + + % & = % ",
"@ $ @ @ % # = ; ; = = $ # & & $ & $ & & $ = > * , ' = & $ % # $ * = ' ' = $ = = $ % $ ) ! ~ { ] > = = = & & & $ # $ # # = > ' = ",
"@ $ % % % % & ; = $ & # # & = & & & & & & * ; = , > ; * # # $ = ; = ' ' * & = * & % ^ / ( ( _ : < = & & & & & $ & & % # & ; ' = ",
"@ $ % % # $ = ; = $ & # # $ $ $ & & & & $ & = = , > > ; % & * > ; = > ' * & & = & [ } ( ( ( ( | 1 & & & & & & = = $ . @ $ * ' = ",
"% & @ % $ = ; > = $ & # # $ # # & & & & # # $ * , ' > ; % & > ' ; = , ' * & & & $ 2 ( ( ( ( ( ( 3 & & & & & = = * $ . @ # * ' = ",
"% = @ . # & ; ; = & & # # $ & $ * * = $ # # $ ; ' ' > * @ $ , ' ; * , ' = & & & & 4 ( ( ( ( ( ( 5 = & $ & = = * ; = % # $ * > = ",
"% = . . # & * * & & & # # & & $ ; * = $ # # # = > ; * = . $ 6 , ' ; , > = & & & & 7 8 ( ( ( ( ( 9 * = $ & = = = ; * $ & & ; > = ",
"# & % # $ & = & & $ & # $ & # % ; = & & $ # # $ * = = = . # ; 0 a ' 6 , * & & & $ # b c ( ( ( d e ; * & = & & = > * $ = $ > ' * ",
"# & % % $ & = & & $ & $ & * & # ; = & & $ # # $ * = = = . # f ; g f 6 , * & & & $ % h i j k l m n ; * & = & & = > * $ = $ > ' = ",
"% & % % $ = = # # = & $ # > & # ; # * $ $ # # & * * > > o f p p p q f ; * = & $ % % = ; f r s t u v w f $ # # & > ; & = & = 6 = ",
"@ $ % % $ = & # # # % # % ; & # ; # * $ $ # # & * ; ' f f p p p p p p f x = & $ % y z A B C D ( E p F f $ # # = ' > & & $ & 6 = ",
"+ # % # & = = $ $ # % % % ; & $ * $ * = $ # $ = * * f G p p p H % p p p I f = $ J K L ( ( ( ( ( M N f f $ $ & ; 6 ; & & $ = , * ",
"+ # # & = = = & & # # # % ; & & * & = = $ # $ = O f p p p p f v P f p p p p f Q R ( ( ( ( ( ( ( E p p f # # & ; 6 ; $ = $ * , ; ",
"+ # $ & = = = $ & # # # # ; & & = & & $ # # & f f p p p O f p p S T U V W X Y f Z ( ` ( ( ( ( ( E p p f # # $ * , ; $ = & # $ % ",
"+ # % $ & = & # = ; ; = # > & $ & & = $ # $ f G p p p f f p  ...+.@.( ( ( ( #.$.%.&.*.=.( ( ( ( E p p f $ # % * -.; # = $ # $ % ",
"+ # % # & = & & ; * * & # ; & $ * * = $ ;.f p p p p >.,.'.).!.C ( ( ( ( ( ( ( ~.{.].^./.( ( ( ( E p p f $ # % & , ; # & # # & % ",
"+ # % % $ = = = = # # % # & & $ * * = f f p p p v (._.:.D ( ( ( ( ( ( ( ( ( ( ( <.p [.}.( ( ( ( E p p f = # @ % # % % # % % ; @ ",
"+ # % % $ = = = = # # % # & & $ * * f |.p p p f f 1.( ( ( ( ( 2.3.4.5.6.( ( ( ( 7.p [.8.( ( ( ( E p p f = # @ % # % % # % % ; @ ",
"+ # % # $ & * = # $ $ # # & & = G f p 9.0.p f a.p b.( ( ( ( ( c.{.p d.e.( ( ( ( f.f [.8.( ( ( ( E p p f = # @ % # % # $ # $ * # ",
"+ # % $ $ & * ; $ # # % # & * f g.h.i.j.k.l.p p p 8.!.( ( ( ( m.p p n.o.( ( ( ( p.p ^.q.( ( ( ( r.p p f & # @ % # # $ $ # # & % ",
"+ # # # & & ; ' # @ % # $ s.t.u.!.v.( ( ( o.w.p p x.y.( ( ( ( z.{...A.D ( ( ( z.d.p [.}.( ( ( ( B.f w f $ # @ % % $ & # # # $ @ ",
". $ # # & & ; , & % # $ ; C.D.( ( ( ( ( ( ( o.E.p p F.( ( ( ( G.H.( ( ( ( ( :.x.p p [.8.( ( ( ( E p f f & % . @ @ # = $ # $ & % ",
"% = $ # & & * > ' & & f 0 Y @.( ( ( ( ( ( ( ( j.I.S J.( ( ( ( ( ( ( ( ( K.L. .p p p [.8.( ( ( ( E p p % f % . . . # & & = = * # ",
"% = $ # $ & * ' , > f M.p Y N.O.P.( ( ( ( ( ( ( C Q.R.( ( S.T.U.V.( ( ( !.W.p p p p X.Y.( ( ( ( Z.p p p p f |.@ . # $ & ' ; ; $ ",
"% = & $ & & * ' ; f p p p a.`. +.+( ( ( ( ( ( ( ( v.++@+#+$+f f f f %+&+( *+=+-+p p ;+6.( ( ( ( >+f ,+p p p f f @ # $ & ' ; ; $ ",
"@ = = & & # ; f '+p p p f f p  +.+( ( ( ( ( ( ( ( ( )+!+f f f f f f f f ~+*+D {+]+^+Y.( ( ( ( ( /+p f (+p p p _+f # # = -.= * $ ",
"@ = * = = # f M.p p p f :+p p  +.+( ( ( 6.<+( ( S.[+f f f f f f f f f f f }+T.( ( ( ( ( ( ( ( |+1+p p -.f p p p p f v = -.& = % ",
"% * * = 2+f p p p O f p p p p  +.+( ( ( <+X 3+4+5+f f f f f f f f f f f f f 6+7+8+( ( ( ( *+U.9+0+p p p p f O p p p 0 f 6 & = @ ",
"@ & * f g p p p f f p p p p p  +.+( ( ( <+a+b+c+f f f f f f f f f f f f f f f f d+e+f+U.e+g+f h+p p p p p p f f p p p M.f = * @ ",
"@ & 0 :+p p p f i+p p p p p p  +.+( ( ( <+j+k+l+f f f f f m+n+f o+p+q+f f f f f f f f f f r+s+p p p p p p p p i+f p p p N t+* % ",
"# & = f p ; f p p p p p p p p  +.+( ( *+q.u+v+w+f f f f x+y+z+z+z+z+w A+B+C+f f f f f B+' D+F p p p p p p p p p % f ; v f # & @ ",
"# & = = f (+f p p p p p p p p  +.+[+E+F+f f f G+f A+@ f l+F p p p p p p H+I+J+K+K+_+o L+M+p p p p p p p p p p p G N+P f ' $ & % ",
"# & = = * * f p p p p p p p p $.O+f f P+Q+R+S+T+. U+V+f g a.p p p p p p p p p F F M+p p p p p p p p p p p p p p W+Q > ' ' & = # ",
"# & = = * * f p p p p p p S X+Y+Z+`+}+#+ @.@+@@@#@$@%@f -.&@p p p p p p p p p p p p p p p p p p p p p p p p p p G p+' ' ' $ & @ ",
"% = = & = * f p p p p p p Y {+( ( 8+*@=@-@;@p p >@w ,@'@)@p p p p p p p p p p p p p p p p p p p p p p p p p p p G p+> ' ' * & % ",
"# * * & & & f p p p p p p Y {+( ( !@~@{@]@p ^@/@m+(@_@:@p p p p p p p p p p p p p p p p p p p p p p p p p p p p G p+; ; * * & % ",
"$ ; * & & $ f p p p p i+f <@[@}@|@1@f f f f f 2@3@)@p p p p p p p p p p p p p p p p 4@x x x x x x x 2@5@p p p p G p+= * & * = % ",
"$ ; * & & & f p p p p f 6@p 7@d.f p p p &@f c+8@M+p p p p p p p p p p p p p p p p p f p p p w % p p p f p p p p G p+& = & * * @ ",
"$ ; * * * * f p p p p f p p p p f p p p M+f 9@p p p f f f f f f f f f f f ; p p p p f p p p a.q p p p 2@p p p p G p+$ ; & * = @ ",
"& * & ' ; ; f p p p p f p p p p f p p p p f p p p p f p p p p p p p p p 6@v p p p p f p p p a.&@p p p 5@p p p p G p+$ ' $ = & @ ",
"& * $ ; * = f p p p p f z+O O N+f G O G N+f p p p p f p p p p p p p p p 0@v p p p p f i+;.O f f ;.;.N+f p p p p G p+$ ' $ = & . ",
"$ ; $ ' ; * f p p p p f M.p p p f F p p p f p p p p f p p p p p p p p p 6@v p p p p f p p p a@b@p c@d@f p p p p G p+; ' # & & + ",
"$ ; $ ' > ; f p p p p f p p p p f p p p p f p p p p f p p p p p p p p p 6@v p p p p f p p p e@q p :@,+f@p p p p G p+; , & = & + ",
"$ ; $ ; * * f p p p p f p p p p f p p p p f p p p p f p p p p p p p p p 6@v p p p p f p p p M.&@p p p a@p p p p G p+; , $ = & . ",
"$ ; # ; * = f p p p p f 0@p p p f p p p p f p p p p f p p p p p p p p p 6@v p p p p f ,+6@,+g g@6@6@,+f p p p p G p+; ' $ = & . ",
"$ ; $ ; > * f p p p p a.h@(+(+g g '+(+(+h@x p p p p f p p p p p p p p p 6@v p p p p :+i@:+:+i@:+:+:+i@:+p p p p G p+; ; & = & . ",
"# ; & * > * f p p p p p p p p p p p p p p p p p p p f p p p p p p p p p 6@v p p p p p p p p p p p p p p p p p p G p+* = = = & . ",
"% * & * > = f p p p p p p p p p p p p p p p p p p p f f % x p p p p p p 6@v p p p p p p p p p p p p p p p p p p G p+* = * = $ @ ",
"  $ & = ; = f p p p p p p p p p p p p p p p p p p p f f 6@P p p p p p p 6@v p p p p p p p p p p p p p p p p p p G p+* > > ; % @ ",
"j@% & = ; = f p p p p p p p p p p p p p p p p p p p f p |.p p p p p p p 6@v p p p p p p p p p p p p p p p p p p G p+& > > ; % @ ",
"  % & * ; & f p p p p p p p p p p p p p p p p p p p f p p p p p p p p p 6@v p p p p p p p p p p p p p p p p p p G p+; ; > ; & + ",
"- # & * > = f p p p p p p p p p p p p p p p p p p p f p p p p p p p p p 6@v p p p p p p p p p p p p p p p p p p G p+; ; > ' > $ ",
"- # = $ ; = f p p p p p p p p p p p p p p p p p p p f p p p p p p p p p 6@v p p p p p p p p p p p p p p p p p p G p+> > ' ' ' = ",
"j@% * $ ; * f p p p p p p p p p p p p p p p p p p p f p p p p p p p p p 6@v p p p p p p p p p p p p p p p p p p G p+' ' ' > > & ",
"k@. ; = * * f p p p p p p p p p p p p p p p p p p p f p p p p p p p p p 6@v p p p p p p p p p p p p p p p p p p W+n+> ' ' ' * & ",
"k@+ > * $ # f p p p p p p p p p p p p p p p p p p p f p p p p p p p p p ,+:+p p p p p p p p p p p p p p p p p p W+Q ; , , , = $ ",
"j@@ ' * $ # f f f f f f f f f f f f f f f f f f f f f f f f f f f f f f f f f f f f f f f f f f f f f f f f f f f Q > , , ' & # ",
"  # > * & $ & & & & = = & % # & % , > * = * * > , ; # # @ % & & * * # % @ % # # # # & = * ' , > = = = & & $ $ & & $ ; * l@, * @ ",
"  # ' > = $ & & & = * * & % # & % , ; = = * * * ' ; # $ # $ = = * * # % @ % # # # @ $ $ & > , ; $ & $ $ & $ $ & & & % & 6 , > # ",
"+ $ , ; * $ & & & = * = & # $ & & ; * = & = = = > ; & = # # = * * = $ # % % # # # @ # & = ; , ; * & # # & $ # # # $ % $ ; > ; $ ",
". & ' = = $ & & & & & & & # $ & $ = = = & & = * ' ; & = # # & = * = & & # % # # # @ # & = ; , ; * & & & = $ # # # $ # # = ; ; & ",
"@ = ; = & # & & & & & = & # $ $ $ $ = * = = * ; , > & & # # & = * = , 6 & % # $ $ % $ $ = ; , ; ; & = = = $ # # # $ # # = ; ; & ",
"@ & * = $ # & & & & & = & % # $ $ # & * * * ; ; ' > & $ # $ = = = = 6 6 $ @ # & & % $ # = > , ; > = = = = $ # $ # $ # # = ; > = ",
"  . # % @ @ $ & & $ @ % . - + . @ + % # # # # $ = = % . + . % % % % ; ; .   + @ @ - . . % & ; $ & % % % % . + . + . + + % $ & % "};
