/* XPM */
static char * wall_xpm[] = {
"64 64 39 1",
" 	c #404040",
".	c #353535",
"+	c #343434",
"@	c #363636",
"#	c #373737",
"$	c #383838",
"%	c #424242",
"&	c #272727",
"*	c #262626",
"=	c #282828",
"-	c #292929",
";	c #2A2A2A",
">	c #2B2B2B",
",	c #252525",
"'	c #222222",
")	c #242424",
"!	c #232323",
"~	c #212121",
"{	c #1F1F1F",
"]	c #202020",
"^	c #1E1E1E",
"/	c #1D1D1D",
"(	c #1C1C1C",
"_	c #1B1B1B",
":	c #2C2C2C",
"<	c #1A1A1A",
"[	c #393939",
"}	c #2D2D2D",
"|	c #313131",
"1	c #323232",
"2	c #303030",
"3	c #333333",
"4	c #2F2F2F",
"5	c #2E2E2E",
"6	c #3D3D3D",
"7	c #414141",
"8	c #3C3C3C",
"9	c #3B3B3B",
"0	c #454545",
" .++.@@@@@@..@@.@.@@.@#@$$@@.+..@@$$@.@@.+.@@@@$#@@@@@@.....@#$%",
"@&***&=--==&&==&=&==&=;->>==&*&&-=>>=&==&*&====>;======&&&&&=;>$",
"@&****=-=&=&&========--;;-=-*,,***-;-==-=*&==&=--======&==*&=->$",
"@&**&&=-=&=&&&&&====&=,'),,!~'!)!')*,,&-=*&=&&=--========&,*&->$",
"@=**&=-;=&=&&&&&====&!{]!!]]^^{~~]),!!),&*&&&&=;-=======-&,*&->$",
"@=*,&=--===&&&=&--=&!^/~)~]^(/~{^{~')!''),=&&&=>;==&===--=*&&-;$",
"@=,,&=--===&&==&---!{//{~~]/_(]]{^~!'))''');=&-:>-=&====--&==-;$",
"@=*&&====&=&&=&*-=,~/((^']{^__/]{{~!***)~~'~&=->>--=====;-&=&;>$",
"@=**&====&=&=-=&-*!{((/'!~]/<_({{{]]]!=&!]]]~*=>>--=====;-&=&;>$",
"@=**&==&&==&&;=&=)~((/]'!'{^__(~{{^^{]),))]~~'=;:--=&&&=;-====:$",
"@&**&==&&&*&*-=&&'{(/^~!!]]]___~]{/(^]!**)!]]~*;>=-=&&&=>;==&=:$",
".&*&===&&&***-=**]{//~!!']~](((~']//{]!&;&,'{]!->-==&&=-:-==&=>$",
".&&======&&&*-=*){//]'''~]'~///{']//{~!*-==!~{~&--==&&=-:-&=&->[",
".&&====&=&&&&-&,~/(^~~''~~''{^/{!]^^{]'*&=&&*^])=--=&&&->-&==&&@",
".&*&===&=--=&;*'{(/]~~'~~~'!]]/])'{{{~!,=&=*=]{'*--=&&*-:-&=&&&@",
".&*&====---=&=,]^/{~]]~~~!!)~~~,*!~~~!,=;&=*='{])=-=&&*=>-&=&&=@",
".&**&====&&*&&)^/^]{{~'!~'))!)&>>*))*,=-===&*,]^]&--=&**&**&**-@",
".&**&====&&*&*'//]]^]~)'~),,=}|12>===-;&-&==&,]^{,=-=&**&**&**-@",
".&*&&=-=&&&&*,~^^]{{]')'')&;|..@32>=;>>&&*,&=,~^^!*-=&**&*&&&&-@",
".&*&&=--&&&**,~^]]{]]!)!!,;1.@@#.+4;=>;&,&,,&*!^^!*==&**&&&&&&=@",
".&&&==->&**&*!]]]{{]~))!!&2.#@@$@+34=,==,&)!,,'{^~&=&&***&=&&&&@",
".&&&==->=*&&,!]~]{{{~)''!:.@@#$$...32=)*,)!'!!!^^]*&=*,**&=&&&=@",
"@=&&==-;>==&,']]]]{{~!~~*2.@@@##@...12*''!~]]~!{^]!==*,,,&====-@",
"@=&&&=->>;=&)~]]]]]]]{]~>1.@@@@#@@@+33}'~~{{{]'{/{)-&*,*,&&=>--@",
"@==&==->>;=&)~{]{]{]//],21.@@##@@@@@+.|={']^{{~^/^,-=&***&&=>--@",
"@====&->>-==,~{^/{{/(({>|+.@#@@@@@#..+14,]{^^^{^/{)-=&***&&=:=-@",
"@=-==&->>-=-)]{^//^/((!21+@@@..@@#@...+|:){^/^^^/{!-=&***&&=:==@",
"@--==&-;;-=;!{{^(//(</;|1+.....@...@..+3|>'^^^^^/^!-&&**&&&=:==@",
"@=--==->>;=-!~{/((((<{*>411+++...+3331|2}-){^^^{^^!=&&*&&&&=>=-@",
"@=--==->>-=='~{/((/(^,,')-}2|1..31|24>=))))]^^^]^~,*&&*==&*=>=-@",
"@=====-:>--&)]]/(/{]{~''{{'=>52325>*!]~!**&*~{^{{!*,=&*==&*&>&=@",
"@====-;>>--&*']//^^/((^/({]])-224>){{(]((^]''''~]',*=&*==&*=>&=@",
"@===--=-;--=&)](/'~(</^{~*^~'&23|>'']{]{!{/^*=&,]!--&**===;>>==@",
"@===--=----;;=~{'*&!/{!!-},=;,2#|>|;*='*=~]);>-*~,:=&**==->>>&=@",
"@====------;>-!!,--*,!!-;>}1|=2[35+1:;-&,)&:4}-&);4&&&,&=-;>>-=@",
"@--====----;>-,)*-:>;>>}423+4-2$141124:;>>}42}-&)-}==&,&&=----=@",
"@--==&=-==----,)*-}}:}21++.1:-2$142+111|24424:==*->-=&,&&==-=-=@",
"@--====-=&-=-=*),=:55423..@2>-|$+443++31|||25;=*;-:-&*)=&&===--@",
"@-------==;---&,,*;:52|3.@.2:-2@+451...33124:=&=};:--=&=&&&-=-=@",
"#-=>--=--=->;-=*,,=;}5|3.@.5>:|#+45|.@.3124};&=>>>;==->-&-&>&==@",
"#-&--=&==&->;=&&,)*=>:41+..};}3@@2}|+.+|4}}>=&>5:}===-;-&-&>&==.",
"@-&>--===&->>&*&=,)&->5|+++};5.$#|5|3+1|5:;=&=;55>===>-=&=->&==.",
"@-&>;--==&;:-=&&;,),=-}2313:--4+|}:|11|4}>-=&&>5=====>-=*=->===.",
"@-&----==&->-===-&,*&=:4|1|:**=:=&>33||2}>;-==&;=====--=*=->&==.",
"@-&--;;==&->-===&&,*&&;52|2};-&*;}|33|22}>>-=;&>=====--=*=->&==.",
"@-&-;>;==&->;&==&=,*&&;}54455}5}||11|244};--=5=-=====-;-*=--===.",
"@-=-;>-==&->>&===-**&&-::555523|1|1|2555:;--&&&;==-==>>-*=-====.",
"@-=-;>====-;>&==&:**&&-;>>>=,)&-!)=:5}}}>;-=-&&=---==:>-*=-=-=&@",
"+&==---====->&=&&>&,&&-;;)^/~)'~'!^/~=>}>;=*=*&==--==;:=*&-;;-*@",
"+*==-----==->&=&&>},**=->-//'&:;;)^^-:>:>-&;**&==--==;:=**=;;-*@",
"+*=--=-=====>===&:-;,*=->-~^~)),!'{~>}:>;-&*&&&==-=&&;:-,&--;-=.",
"+&=-;--==-=-====&:--,)*&--*^^~!!!]{=>:>;-&=&&==-=--=====*&--;>;@",
"+&=&->-======--=*:>})!)*--&,]^'~~'=>>>;-=)=&&=;==--==&&&*&;;>>>$",
"+*-&->-=====--=&*::-!'),=-=;-=>>5245:>-&!!=&==>=&--==&&&*=>>>;;#",
"3,-=--===---==&&*>4}!!))&==:21....15:-*~!)===->==--==&=&*=;>>>-#",
"3);-&&&&===-=&&&&}&)'),,,&&;513++1|:-,{),)-=&>;-=-;==*=&&=->>>=@",
"+*>-&&&&===-=&&&;&&='),&=),&>52222:-){!*,*&>=>>-=-;==&=&&=;>>>=@",
"+&;-=&=======*>;:;*-*),=-=!!*->>>>&~{~**)**-:>>;=====&&==&--}>-@",
"+&>;=&=-----=*:*>5}*$,)&==*!~~''!~{]')&*)==*54>-&=&&=&&===*=:>;@",
".&>--&=----==&;>>@>-},!*=&*,)!!'!!!)),=*,->)5->--=&&=&&&&&*&-;-@",
".=>==&=--====}-&>6)5|5>*&&*,)),,&*&*,&-**;>)541--====&&&&&&&=--#",
"@=-==&=--&===;)~&}*315+15&&*)!,*&&=&=;-*&;-,54|--====&&&&&&&=--#",
"@=-=&&=--&==>)),||>:|54:5,)),)),**=;;;-&--=:+125;====&&&&&&&=-;$",
" .@@@@@@@.#45544$#5}#@778}45::}444|1112422|9[0...@@@@.......@@#%"};
