/* XPM */
static char * Untitled_xpm[] = {
"64 64 18 1",
" 	c #727272",
".	c #737373",
"+	c #767676",
"@	c #747474",
"#	c #707070",
"$	c #6F6F6F",
"%	c #717171",
"&	c #6E6E6E",
"*	c #6C6C6C",
"=	c #6D6D6D",
"-	c #757575",
";	c #777777",
">	c #6B6B6B",
",	c #6A6A6A",
"'	c #787878",
")	c #7D7D7D",
"!	c #797979",
"~	c #696969",
" .++@ #$$%%.@  . .  .%&#*=% .-@.#%==%.%%.-.   %=&%%%   .@.@@%&=*",
" .++-@%$$%%.@  . .  .%&#*=% .-@.#%==%.%%.-.   %=&%%%   .@.@@%&==",
" .---- $%. @@ %      #$%*&$#@@.%$%==# %# -.  . $$%     .  -@ $==",
" .--@.%$%. @@...    . %%*&&$- #&$%&=#  % -. .. $$      %%.;+.#==",
"% +-.%$&%. @@.@@    @@.#*=&$- &=$%*=#   .-...@ &$     %%#.;+@#==",
"%%+;@ $$%  @@. .##%.@@.$==&#+.*=$#*=%    -...@ =&% . %%#$%-@.#&=",
"%%;;@ ##   @@  .$#%.@@@%&$#%;.>*=$*&%    @. %.#>=#%. %%%$#.  $&=",
"# -@. %  . @. @-$%  .@@.#%%%;@$===>*#   .@ .  #*=$# %  %&#.%.&=*",
"# --. %  . . # @$%  .@@.#%%%;@%&==>*#   .-@. . ==$# %  %&#.%.&==",
"% --.%%@@% .@& @$@#..@@ ##&&+@%%==&$#% .--%## %&>$# .@@ &$ % %>=",
" .--.% @@@-@-$ @$@#..@@ #$==-@. ==@-.% .--%$$%%&*%# .@@%=&  . >=",
"@@-@ %%..@---$ .#.#%.@.%##*=-...*=.@ #%.@@%##%#&=#% .. $>$  .%**",
"@@@ %%%  @@@-$  # %%.@.%$%**@% .>*.@%#% .@% & %&$#% @@ $>$.%.#*>",
"@@. %%%. @@@@$  %  .@@ ##%=>%$  >*.@%%% .- %>. ####%@@.#*$.% @.%",
"@@-. % @%$$%@& .  %.@. %%%$*#= #**@.%%%%.+ &*. ##$# .@-#,$@%.@.%",
"@@-@ %  $## @$ .##%..@+  #=>#& #&&@.%%%%.+ &*. # ## .@- *$@ @@ %",
"@@--.%%%%@@-@  .##%..%=&%#=*&%.-#$@.%% @-+ =*  ..$##%@+-@--@--$ ",
"@@--.%%%%@@-@  .##%..%=&%#=*&%.-. @.%% .@+ *>  ..$##%@+-@--@--$ ",
"@@-@. #%@..@@  %%   .#*&%%**=$-@.@-.   .@+.==%.-@# $%@+-@-@.@.##",
"@@-.. #$.@@-@ #$ .  .#*&%%*>=$-@.@-.  .-+.%&&%.-.&$% @+-@@..@@ %",
"@@@@  $=@+-@.%#& .  .$*= %*==$..@-@@  .--#$$#%.@.$* .@+--. @@@. ",
"..@@  $* -@..%#& . .@&== %>&&&&#@@@@  @@.&###% ..#&% -;++@%.@. %",
"%%.@  #&=  ..%#&%  .@&*& %*&&$ .  @@..@@.$#%%%# .% % -;;;@  %%##",
"%%.@. #=*&%@.%%$## ..$*$%%#$$# @ %--. .--$    & .-  .-;+;@. =$$$",
"%% .  #=*&%@.%%$##% .%*=#%#$$# @@.@@. .--&#   & .-   @--+@. =$$$",
" %%  @$==$     #%$&% %#%%#$$%.@@--@-  .-@## . % @@%% @---@@%,%#$",
" %#%%@$==$     # $&%  %%%#$%@---..-.. .-@## . %%  %% @---@@%, %%",
"%##% .#&&$ # % & $$ -  % ## -+-@.@%*% @+-$$%  %%.%$%.@--@.@ > % ",
"  ## %#==& & &$# $$ -###%$%.-+@. .+.@@---$&%  %%@ & .@-@..@ *%# ",
"  ##%%$**$%$%==#%$& @&=&###.-@==%@- @--..$&%%  %.%& .@-  .- * #%",
"# %%%%$>*$#%#&=#%&= -%*& %%%.@.#.';-@-@..$$.  .  $=. @+% @+.=@  ",
"# %%%#&*=$#%#&=##&$.+ =#.  @;'$)+.!;-----%%@... #&&. @+% .- =. %",
"# %%##%$&##$&*=%#=$.- $$&#.@+'  **;;+--@@#$....  $$%@-+% %&== %#",
"# %%##%#$##&*>=%%$&%@ $&=$  -;@$##++-@@@@#$  .. .%%.@-+% $===.  ",
"%%% %######&=*&%%&&.+#%==# %@.&*==+--@.. ## % . %#%..@;. #&==# %",
"###   %####&==& %&= +% &&$&%@.$===..@@..    % . %$#% @;.. $$## %",
"$$#  . #% ##$&$ #&=%-@@$=&* @.$&*>  .@@....   .%#$#%%.;.@ %# #%%",
"$$#   %#%.$%##%. $=%@@@$>&=.-@$$*>  .@@....  ..%### .+' @. % ## ",
"$$######% &$$# @.#&%. .$*&*##$&$=*  .@.%%%%% ..%%%% #%.%...$ #% ",
"&# =$$%## $*&# -.%#    $&&>$&>=$**%.@@. %%#$ @ #%%%%%$=#@#.=.%  ",
"&#.$#%.%%@#=&%@+- #    $&*~$&*&%**%.@..@.%## .%$%%%%%$&#@#.=.% .",
"$$.=$#%%%@#**@--@ .%% %$*&>&&*&$==%%     $%%. ####%%%=$%@ $=@  @",
"$$.=&$#%%.&,$%...% %$-$=>$=&&*&$== .. %$$$%%..    %%%=# - $* % @",
"$$.$#$$%%.$*$   .&%#$@$=*&=&=*$&&=   @$*$%## @.   %%%$$ + $*.% .",
"$$@$#&&%%@$*$   .&###-%=*==&*>#&=*%  -&>$$&$ @.   %%%#$%- $=.% .",
"$$.$&*&% .$=&.  .&##%@#=**=$=*&& %% %-$>#@.# @.   %% $&#- $$ % .",
"#$ #&*#  .$==@   $&#%.$***$#&*=&%%%%%-#,#..# @.   #  *=$+ #%%% .",
"%# #&=%   #&=.  .&&$#.$**&##&*=&%% %%@#>#% %.@.%###  >*#- #%#%. ",
"+. %$#$   %$=. .@*$$$.#*&$.%&>=&%%@....=#%@++-.%%$#  &>%-@#&&$- ",
";- %$#$## %$=. .@*$$$.#$##@.#*=&%%@.   &%%@++-.%%$#  &>%-- &&$- ",
"+- #$%#%%% %= %%.>$## $%% ..&>&=#.--@.%#% .-@@. %$%..&,$;@$$&$ @",
"-@ #&#$%%# # %%%.>$#%.#%% ...%*&#.---@ #% .@. %#%$$ %%% -@$$&=&$",
"-@%.$=$%%  %%## ->=#$@%#$#-@-@,&#.--+-.##  @.%&% #$%%.@.-.&&====",
";-#.$*#%%%%%##%.+>>#$@#$&$+@-->$#.--;+.    . %= .#$%%...- ===&&&",
"';$%#$  %###%%.@-**#$.#$=$+@-+$%# --++@. .   $=% #$%%. .- &===#&",
"''&#.@@. %%#%.@@@==#####*$+-++.%% +++--. @ %.=&#%#&  - .@ $***%$",
";+=#.@@. %%# .@@@==####$>$--++ #% -+-@@.  %$%*=#%#&  @ .@ &**= #",
"+@&# .%%%%%% -@ -*&#%##&*$@@+-  ##@-+-@@@@ %#=*&%%%  ..  .$#~*# ",
"+@=&%.%##### -@ -*$%%###=$@.@.%%##@-+-@@@+.. &*$. .. ..   - >*&#",
"@.*$#.%####% @.  $#% %%%&$ %@@%##%.@--@@@+@ %$*$# @@ .@@@.-.$&$$",
". =%%.%##    @. .%%%  %#=$ %@@ %#%  @-@@@+@ %$*$#   %.@@@.@@%$$&",
" %$% @ $$. % @....%#%%#$*&  @@ %#%*> -@..-..%$*$$ %%%.@@@.@@%$$&",
"  #%.@ ##. % -@..@ ###$$=& .@.%%%%>>.+@  -.@%&*$&%%%%.@.@.@@%$&=",
" .#%  %%%. %.-@. @%####$==%.@.%%%%>,.+@  -..%&>$&%%%%.@.@.@@%$&="};
